<mxfile host="app.diagrams.net" modified="2021-01-15T09:22:21.024Z" agent="5.0 (Windows NT 10.0; Win64; x64) AppleWebKit/537.36 (KHTML, like Gecko) Chrome/87.0.4280.141 Safari/537.36" etag="jGu0JKzPgIl5GxWgY5q1" version="14.2.2" type="github" pages="2">
  <diagram id="C5RBs43oDa-KdzZeNtuy" name="ER">
    <mxGraphModel dx="1043" dy="685" grid="1" gridSize="10" guides="1" tooltips="1" connect="1" arrows="1" fold="1" page="1" pageScale="1" pageWidth="827" pageHeight="1169" math="0" shadow="0">
      <root>
        <mxCell id="WIyWlLk6GJQsqaUBKTNV-0" />
        <mxCell id="WIyWlLk6GJQsqaUBKTNV-1" parent="WIyWlLk6GJQsqaUBKTNV-0" />
        <mxCell id="h_7XjAvWhaXfRPcOhmmS-23" style="rounded=0;orthogonalLoop=1;jettySize=auto;html=1;entryX=0;entryY=0.229;entryDx=0;entryDy=0;entryPerimeter=0;endArrow=ERmany;endFill=0;" parent="WIyWlLk6GJQsqaUBKTNV-1" source="h_7XjAvWhaXfRPcOhmmS-0" target="h_7XjAvWhaXfRPcOhmmS-14" edge="1">
          <mxGeometry relative="1" as="geometry" />
        </mxCell>
        <mxCell id="h_7XjAvWhaXfRPcOhmmS-0" value="squadra" style="shape=table;html=1;whiteSpace=wrap;startSize=30;container=1;collapsible=0;childLayout=tableLayout;fixedRows=1;rowLines=0;fontStyle=1;align=center;fillColor=#f8cecc;strokeColor=#b85450;" parent="WIyWlLk6GJQsqaUBKTNV-1" vertex="1">
          <mxGeometry x="30" y="40" width="180" height="150" as="geometry" />
        </mxCell>
        <mxCell id="h_7XjAvWhaXfRPcOhmmS-1" value="" style="shape=partialRectangle;html=1;whiteSpace=wrap;collapsible=0;dropTarget=0;pointerEvents=0;fillColor=none;top=0;left=0;bottom=1;right=0;points=[[0,0.5],[1,0.5]];portConstraint=eastwest;" parent="h_7XjAvWhaXfRPcOhmmS-0" vertex="1">
          <mxGeometry y="30" width="180" height="30" as="geometry" />
        </mxCell>
        <mxCell id="h_7XjAvWhaXfRPcOhmmS-2" value="PK" style="shape=partialRectangle;html=1;whiteSpace=wrap;connectable=0;fillColor=none;top=0;left=0;bottom=0;right=0;overflow=hidden;" parent="h_7XjAvWhaXfRPcOhmmS-1" vertex="1">
          <mxGeometry width="40" height="30" as="geometry" />
        </mxCell>
        <mxCell id="h_7XjAvWhaXfRPcOhmmS-3" value="Id_squadra" style="shape=partialRectangle;html=1;whiteSpace=wrap;connectable=0;fillColor=none;top=0;left=0;bottom=0;right=0;align=left;spacingLeft=6;overflow=hidden;" parent="h_7XjAvWhaXfRPcOhmmS-1" vertex="1">
          <mxGeometry x="40" width="140" height="30" as="geometry" />
        </mxCell>
        <mxCell id="h_7XjAvWhaXfRPcOhmmS-4" value="" style="shape=partialRectangle;html=1;whiteSpace=wrap;collapsible=0;dropTarget=0;pointerEvents=0;fillColor=none;top=0;left=0;bottom=0;right=0;points=[[0,0.5],[1,0.5]];portConstraint=eastwest;" parent="h_7XjAvWhaXfRPcOhmmS-0" vertex="1">
          <mxGeometry y="60" width="180" height="30" as="geometry" />
        </mxCell>
        <mxCell id="h_7XjAvWhaXfRPcOhmmS-5" value="" style="shape=partialRectangle;html=1;whiteSpace=wrap;connectable=0;fillColor=none;top=0;left=0;bottom=0;right=0;overflow=hidden;" parent="h_7XjAvWhaXfRPcOhmmS-4" vertex="1">
          <mxGeometry width="40" height="30" as="geometry" />
        </mxCell>
        <mxCell id="h_7XjAvWhaXfRPcOhmmS-6" value="nome_squadra" style="shape=partialRectangle;html=1;whiteSpace=wrap;connectable=0;fillColor=none;top=0;left=0;bottom=0;right=0;align=left;spacingLeft=6;overflow=hidden;" parent="h_7XjAvWhaXfRPcOhmmS-4" vertex="1">
          <mxGeometry x="40" width="140" height="30" as="geometry" />
        </mxCell>
        <mxCell id="h_7XjAvWhaXfRPcOhmmS-20" value="" style="shape=partialRectangle;html=1;whiteSpace=wrap;collapsible=0;dropTarget=0;pointerEvents=0;fillColor=none;top=0;left=0;bottom=0;right=0;points=[[0,0.5],[1,0.5]];portConstraint=eastwest;" parent="h_7XjAvWhaXfRPcOhmmS-0" vertex="1">
          <mxGeometry y="90" width="180" height="30" as="geometry" />
        </mxCell>
        <mxCell id="h_7XjAvWhaXfRPcOhmmS-21" value="" style="shape=partialRectangle;html=1;whiteSpace=wrap;connectable=0;fillColor=none;top=0;left=0;bottom=0;right=0;overflow=hidden;" parent="h_7XjAvWhaXfRPcOhmmS-20" vertex="1">
          <mxGeometry width="40" height="30" as="geometry" />
        </mxCell>
        <mxCell id="h_7XjAvWhaXfRPcOhmmS-22" value="" style="shape=partialRectangle;html=1;whiteSpace=wrap;connectable=0;fillColor=none;top=0;left=0;bottom=0;right=0;align=left;spacingLeft=6;overflow=hidden;" parent="h_7XjAvWhaXfRPcOhmmS-20" vertex="1">
          <mxGeometry x="40" width="140" height="30" as="geometry" />
        </mxCell>
        <mxCell id="h_7XjAvWhaXfRPcOhmmS-7" value="" style="shape=partialRectangle;html=1;whiteSpace=wrap;collapsible=0;dropTarget=0;pointerEvents=0;fillColor=none;top=0;left=0;bottom=0;right=0;points=[[0,0.5],[1,0.5]];portConstraint=eastwest;" parent="h_7XjAvWhaXfRPcOhmmS-0" vertex="1">
          <mxGeometry y="120" width="180" height="30" as="geometry" />
        </mxCell>
        <mxCell id="h_7XjAvWhaXfRPcOhmmS-8" value="" style="shape=partialRectangle;html=1;whiteSpace=wrap;connectable=0;fillColor=none;top=0;left=0;bottom=0;right=0;overflow=hidden;" parent="h_7XjAvWhaXfRPcOhmmS-7" vertex="1">
          <mxGeometry width="40" height="30" as="geometry" />
        </mxCell>
        <mxCell id="h_7XjAvWhaXfRPcOhmmS-9" value="" style="shape=partialRectangle;html=1;whiteSpace=wrap;connectable=0;fillColor=none;top=0;left=0;bottom=0;right=0;align=left;spacingLeft=6;overflow=hidden;" parent="h_7XjAvWhaXfRPcOhmmS-7" vertex="1">
          <mxGeometry x="40" width="140" height="30" as="geometry" />
        </mxCell>
        <mxCell id="h_7XjAvWhaXfRPcOhmmS-10" value="Giocatore" style="shape=table;html=1;whiteSpace=wrap;startSize=30;container=1;collapsible=0;childLayout=tableLayout;fixedRows=1;rowLines=0;fontStyle=1;align=center;fillColor=#f8cecc;strokeColor=#b85450;" parent="WIyWlLk6GJQsqaUBKTNV-1" vertex="1">
          <mxGeometry x="490" y="40" width="180" height="230" as="geometry" />
        </mxCell>
        <mxCell id="h_7XjAvWhaXfRPcOhmmS-11" value="" style="shape=partialRectangle;html=1;whiteSpace=wrap;collapsible=0;dropTarget=0;pointerEvents=0;fillColor=none;top=0;left=0;bottom=1;right=0;points=[[0,0.5],[1,0.5]];portConstraint=eastwest;" parent="h_7XjAvWhaXfRPcOhmmS-10" vertex="1">
          <mxGeometry y="30" width="180" height="30" as="geometry" />
        </mxCell>
        <mxCell id="h_7XjAvWhaXfRPcOhmmS-12" value="PK" style="shape=partialRectangle;html=1;whiteSpace=wrap;connectable=0;fillColor=none;top=0;left=0;bottom=0;right=0;overflow=hidden;" parent="h_7XjAvWhaXfRPcOhmmS-11" vertex="1">
          <mxGeometry width="40" height="30" as="geometry" />
        </mxCell>
        <mxCell id="h_7XjAvWhaXfRPcOhmmS-13" value="Id_giocatore" style="shape=partialRectangle;html=1;whiteSpace=wrap;connectable=0;fillColor=none;top=0;left=0;bottom=0;right=0;align=left;spacingLeft=6;overflow=hidden;" parent="h_7XjAvWhaXfRPcOhmmS-11" vertex="1">
          <mxGeometry x="40" width="140" height="30" as="geometry" />
        </mxCell>
        <mxCell id="h_7XjAvWhaXfRPcOhmmS-14" value="" style="shape=partialRectangle;html=1;whiteSpace=wrap;collapsible=0;dropTarget=0;pointerEvents=0;fillColor=none;top=0;left=0;bottom=0;right=0;points=[[0,0.5],[1,0.5]];portConstraint=eastwest;" parent="h_7XjAvWhaXfRPcOhmmS-10" vertex="1">
          <mxGeometry y="60" width="180" height="70" as="geometry" />
        </mxCell>
        <mxCell id="h_7XjAvWhaXfRPcOhmmS-15" value="" style="shape=partialRectangle;html=1;whiteSpace=wrap;connectable=0;fillColor=none;top=0;left=0;bottom=0;right=0;overflow=hidden;" parent="h_7XjAvWhaXfRPcOhmmS-14" vertex="1">
          <mxGeometry width="40" height="70" as="geometry" />
        </mxCell>
        <mxCell id="h_7XjAvWhaXfRPcOhmmS-16" value="nome&lt;br&gt;cognome&lt;br&gt;ruolo&lt;br&gt;num_maglia" style="shape=partialRectangle;html=1;whiteSpace=wrap;connectable=0;fillColor=none;top=0;left=0;bottom=0;right=0;align=left;spacingLeft=6;overflow=hidden;" parent="h_7XjAvWhaXfRPcOhmmS-14" vertex="1">
          <mxGeometry x="40" width="140" height="70" as="geometry" />
        </mxCell>
        <mxCell id="lzWlHIOBNX2eGFw-Sq9X-95" value="" style="shape=partialRectangle;html=1;whiteSpace=wrap;collapsible=0;dropTarget=0;pointerEvents=0;fillColor=none;top=0;left=0;bottom=0;right=0;points=[[0,0.5],[1,0.5]];portConstraint=eastwest;" vertex="1" parent="h_7XjAvWhaXfRPcOhmmS-10">
          <mxGeometry y="130" width="180" height="70" as="geometry" />
        </mxCell>
        <mxCell id="lzWlHIOBNX2eGFw-Sq9X-96" value="" style="shape=partialRectangle;html=1;whiteSpace=wrap;connectable=0;fillColor=none;top=0;left=0;bottom=0;right=0;overflow=hidden;" vertex="1" parent="lzWlHIOBNX2eGFw-Sq9X-95">
          <mxGeometry width="40" height="70" as="geometry" />
        </mxCell>
        <mxCell id="lzWlHIOBNX2eGFw-Sq9X-97" value="" style="shape=partialRectangle;html=1;whiteSpace=wrap;connectable=0;fillColor=none;top=0;left=0;bottom=0;right=0;align=left;spacingLeft=6;overflow=hidden;" vertex="1" parent="lzWlHIOBNX2eGFw-Sq9X-95">
          <mxGeometry x="40" width="140" height="70" as="geometry" />
        </mxCell>
        <mxCell id="h_7XjAvWhaXfRPcOhmmS-17" value="" style="shape=partialRectangle;html=1;whiteSpace=wrap;collapsible=0;dropTarget=0;pointerEvents=0;fillColor=none;top=0;left=0;bottom=0;right=0;points=[[0,0.5],[1,0.5]];portConstraint=eastwest;" parent="h_7XjAvWhaXfRPcOhmmS-10" vertex="1">
          <mxGeometry y="200" width="180" height="30" as="geometry" />
        </mxCell>
        <mxCell id="h_7XjAvWhaXfRPcOhmmS-18" value="" style="shape=partialRectangle;html=1;whiteSpace=wrap;connectable=0;fillColor=none;top=0;left=0;bottom=0;right=0;overflow=hidden;" parent="h_7XjAvWhaXfRPcOhmmS-17" vertex="1">
          <mxGeometry width="40" height="30" as="geometry" />
        </mxCell>
        <mxCell id="h_7XjAvWhaXfRPcOhmmS-19" value="" style="shape=partialRectangle;html=1;whiteSpace=wrap;connectable=0;fillColor=none;top=0;left=0;bottom=0;right=0;align=left;spacingLeft=6;overflow=hidden;" parent="h_7XjAvWhaXfRPcOhmmS-17" vertex="1">
          <mxGeometry x="40" width="140" height="30" as="geometry" />
        </mxCell>
        <mxCell id="h_7XjAvWhaXfRPcOhmmS-24" value="&amp;lt;Gioca" style="text;html=1;strokeColor=none;fillColor=none;align=center;verticalAlign=middle;whiteSpace=wrap;rounded=0;fontStyle=1;fontSize=14;" parent="WIyWlLk6GJQsqaUBKTNV-1" vertex="1">
          <mxGeometry x="270" y="80" width="40" height="20" as="geometry" />
        </mxCell>
        <mxCell id="h_7XjAvWhaXfRPcOhmmS-25" style="edgeStyle=none;rounded=0;orthogonalLoop=1;jettySize=auto;html=1;endArrow=none;endFill=0;entryX=0.989;entryY=0.067;entryDx=0;entryDy=0;entryPerimeter=0;startArrow=oval;startFill=1;" parent="WIyWlLk6GJQsqaUBKTNV-1" source="h_7XjAvWhaXfRPcOhmmS-14" target="h_7XjAvWhaXfRPcOhmmS-20" edge="1">
          <mxGeometry relative="1" as="geometry">
            <mxPoint x="350" y="135" as="targetPoint" />
          </mxGeometry>
        </mxCell>
        <mxCell id="h_7XjAvWhaXfRPcOhmmS-26" value="&lt;b style=&quot;font-size: 14px;&quot;&gt;&amp;lt;allena&lt;/b&gt;" style="text;html=1;strokeColor=none;fillColor=none;align=center;verticalAlign=middle;whiteSpace=wrap;rounded=0;fontSize=14;" parent="WIyWlLk6GJQsqaUBKTNV-1" vertex="1">
          <mxGeometry x="270" y="140" width="40" height="20" as="geometry" />
        </mxCell>
        <mxCell id="h_7XjAvWhaXfRPcOhmmS-43" style="edgeStyle=none;rounded=0;orthogonalLoop=1;jettySize=auto;html=1;entryX=0.561;entryY=1.067;entryDx=0;entryDy=0;entryPerimeter=0;startArrow=none;startFill=0;endArrow=none;endFill=0;fontSize=14;" parent="WIyWlLk6GJQsqaUBKTNV-1" source="h_7XjAvWhaXfRPcOhmmS-28" target="h_7XjAvWhaXfRPcOhmmS-7" edge="1">
          <mxGeometry relative="1" as="geometry" />
        </mxCell>
        <mxCell id="h_7XjAvWhaXfRPcOhmmS-44" style="edgeStyle=none;rounded=0;orthogonalLoop=1;jettySize=auto;html=1;exitX=0.75;exitY=0;exitDx=0;exitDy=0;startArrow=none;startFill=0;endArrow=none;endFill=0;fontSize=14;entryX=0.789;entryY=1;entryDx=0;entryDy=0;entryPerimeter=0;" parent="WIyWlLk6GJQsqaUBKTNV-1" source="h_7XjAvWhaXfRPcOhmmS-28" target="h_7XjAvWhaXfRPcOhmmS-7" edge="1">
          <mxGeometry relative="1" as="geometry">
            <mxPoint x="175" y="260" as="targetPoint" />
          </mxGeometry>
        </mxCell>
        <mxCell id="h_7XjAvWhaXfRPcOhmmS-47" style="edgeStyle=orthogonalEdgeStyle;rounded=0;orthogonalLoop=1;jettySize=auto;html=1;entryX=0.572;entryY=1;entryDx=0;entryDy=0;entryPerimeter=0;startArrow=ERmany;startFill=0;endArrow=none;endFill=0;fontSize=14;" parent="WIyWlLk6GJQsqaUBKTNV-1" source="h_7XjAvWhaXfRPcOhmmS-28" target="h_7XjAvWhaXfRPcOhmmS-17" edge="1">
          <mxGeometry relative="1" as="geometry">
            <Array as="points">
              <mxPoint x="593" y="405" />
            </Array>
          </mxGeometry>
        </mxCell>
        <mxCell id="h_7XjAvWhaXfRPcOhmmS-28" value="Partita" style="shape=table;html=1;whiteSpace=wrap;startSize=30;container=1;collapsible=0;childLayout=tableLayout;fixedRows=1;rowLines=0;fontStyle=1;align=center;fillColor=#f8cecc;strokeColor=#b85450;" parent="WIyWlLk6GJQsqaUBKTNV-1" vertex="1">
          <mxGeometry x="40" y="320" width="180" height="170" as="geometry" />
        </mxCell>
        <mxCell id="h_7XjAvWhaXfRPcOhmmS-29" value="" style="shape=partialRectangle;html=1;whiteSpace=wrap;collapsible=0;dropTarget=0;pointerEvents=0;fillColor=none;top=0;left=0;bottom=1;right=0;points=[[0,0.5],[1,0.5]];portConstraint=eastwest;" parent="h_7XjAvWhaXfRPcOhmmS-28" vertex="1">
          <mxGeometry y="30" width="180" height="30" as="geometry" />
        </mxCell>
        <mxCell id="h_7XjAvWhaXfRPcOhmmS-30" value="PK" style="shape=partialRectangle;html=1;whiteSpace=wrap;connectable=0;fillColor=none;top=0;left=0;bottom=0;right=0;overflow=hidden;" parent="h_7XjAvWhaXfRPcOhmmS-29" vertex="1">
          <mxGeometry width="40" height="30" as="geometry" />
        </mxCell>
        <mxCell id="h_7XjAvWhaXfRPcOhmmS-31" value="Id_partita" style="shape=partialRectangle;html=1;whiteSpace=wrap;connectable=0;fillColor=none;top=0;left=0;bottom=0;right=0;align=left;spacingLeft=6;overflow=hidden;" parent="h_7XjAvWhaXfRPcOhmmS-29" vertex="1">
          <mxGeometry x="40" width="140" height="30" as="geometry" />
        </mxCell>
        <mxCell id="h_7XjAvWhaXfRPcOhmmS-32" value="" style="shape=partialRectangle;html=1;whiteSpace=wrap;collapsible=0;dropTarget=0;pointerEvents=0;fillColor=none;top=0;left=0;bottom=0;right=0;points=[[0,0.5],[1,0.5]];portConstraint=eastwest;" parent="h_7XjAvWhaXfRPcOhmmS-28" vertex="1">
          <mxGeometry y="60" width="180" height="50" as="geometry" />
        </mxCell>
        <mxCell id="h_7XjAvWhaXfRPcOhmmS-33" value="" style="shape=partialRectangle;html=1;whiteSpace=wrap;connectable=0;fillColor=none;top=0;left=0;bottom=0;right=0;overflow=hidden;" parent="h_7XjAvWhaXfRPcOhmmS-32" vertex="1">
          <mxGeometry width="40" height="50" as="geometry" />
        </mxCell>
        <mxCell id="h_7XjAvWhaXfRPcOhmmS-34" value="luogo&lt;br&gt;data&lt;br&gt;ora" style="shape=partialRectangle;html=1;whiteSpace=wrap;connectable=0;fillColor=none;top=0;left=0;bottom=0;right=0;align=left;spacingLeft=6;overflow=hidden;" parent="h_7XjAvWhaXfRPcOhmmS-32" vertex="1">
          <mxGeometry x="40" width="140" height="50" as="geometry" />
        </mxCell>
        <mxCell id="h_7XjAvWhaXfRPcOhmmS-35" value="" style="shape=partialRectangle;html=1;whiteSpace=wrap;collapsible=0;dropTarget=0;pointerEvents=0;fillColor=none;top=0;left=0;bottom=0;right=0;points=[[0,0.5],[1,0.5]];portConstraint=eastwest;" parent="h_7XjAvWhaXfRPcOhmmS-28" vertex="1">
          <mxGeometry y="110" width="180" height="30" as="geometry" />
        </mxCell>
        <mxCell id="h_7XjAvWhaXfRPcOhmmS-36" value="" style="shape=partialRectangle;html=1;whiteSpace=wrap;connectable=0;fillColor=none;top=0;left=0;bottom=0;right=0;overflow=hidden;" parent="h_7XjAvWhaXfRPcOhmmS-35" vertex="1">
          <mxGeometry width="40" height="30" as="geometry" />
        </mxCell>
        <mxCell id="h_7XjAvWhaXfRPcOhmmS-37" value="" style="shape=partialRectangle;html=1;whiteSpace=wrap;connectable=0;fillColor=none;top=0;left=0;bottom=0;right=0;align=left;spacingLeft=6;overflow=hidden;" parent="h_7XjAvWhaXfRPcOhmmS-35" vertex="1">
          <mxGeometry x="40" width="140" height="30" as="geometry" />
        </mxCell>
        <mxCell id="h_7XjAvWhaXfRPcOhmmS-38" value="" style="shape=partialRectangle;html=1;whiteSpace=wrap;collapsible=0;dropTarget=0;pointerEvents=0;fillColor=none;top=0;left=0;bottom=0;right=0;points=[[0,0.5],[1,0.5]];portConstraint=eastwest;" parent="h_7XjAvWhaXfRPcOhmmS-28" vertex="1">
          <mxGeometry y="140" width="180" height="30" as="geometry" />
        </mxCell>
        <mxCell id="h_7XjAvWhaXfRPcOhmmS-39" value="" style="shape=partialRectangle;html=1;whiteSpace=wrap;connectable=0;fillColor=none;top=0;left=0;bottom=0;right=0;overflow=hidden;" parent="h_7XjAvWhaXfRPcOhmmS-38" vertex="1">
          <mxGeometry width="40" height="30" as="geometry" />
        </mxCell>
        <mxCell id="h_7XjAvWhaXfRPcOhmmS-40" value="" style="shape=partialRectangle;html=1;whiteSpace=wrap;connectable=0;fillColor=none;top=0;left=0;bottom=0;right=0;align=left;spacingLeft=6;overflow=hidden;" parent="h_7XjAvWhaXfRPcOhmmS-38" vertex="1">
          <mxGeometry x="40" width="140" height="30" as="geometry" />
        </mxCell>
        <mxCell id="h_7XjAvWhaXfRPcOhmmS-45" value="partecipda&lt;br&gt;in casa&amp;gt;" style="text;html=1;strokeColor=none;fillColor=none;align=center;verticalAlign=middle;whiteSpace=wrap;rounded=0;fontSize=14;rotation=90;fontStyle=1" parent="WIyWlLk6GJQsqaUBKTNV-1" vertex="1">
          <mxGeometry x="50" y="250" width="100" height="20" as="geometry" />
        </mxCell>
        <mxCell id="h_7XjAvWhaXfRPcOhmmS-46" value="partecipda&lt;br&gt;ospite&amp;gt;" style="text;html=1;strokeColor=none;fillColor=none;align=center;verticalAlign=middle;whiteSpace=wrap;rounded=0;fontSize=14;rotation=90;fontStyle=1" parent="WIyWlLk6GJQsqaUBKTNV-1" vertex="1">
          <mxGeometry x="150" y="250" width="100" height="20" as="geometry" />
        </mxCell>
        <mxCell id="h_7XjAvWhaXfRPcOhmmS-48" value="&amp;lt;convocato" style="text;html=1;strokeColor=none;fillColor=none;align=center;verticalAlign=middle;whiteSpace=wrap;rounded=0;fontSize=14;fontStyle=1" parent="WIyWlLk6GJQsqaUBKTNV-1" vertex="1">
          <mxGeometry x="480" y="360" width="90" height="20" as="geometry" />
        </mxCell>
        <mxCell id="h_7XjAvWhaXfRPcOhmmS-49" value="&lt;b&gt;&lt;i&gt;&lt;font style=&quot;font-size: 26px&quot;&gt;ER&lt;/font&gt;&lt;/i&gt;&lt;/b&gt;" style="text;html=1;strokeColor=none;fillColor=none;align=center;verticalAlign=middle;whiteSpace=wrap;rounded=0;fontSize=14;" parent="WIyWlLk6GJQsqaUBKTNV-1" vertex="1">
          <mxGeometry x="350" y="10" width="40" height="20" as="geometry" />
        </mxCell>
        <mxCell id="lzWlHIOBNX2eGFw-Sq9X-100" style="edgeStyle=orthogonalEdgeStyle;rounded=0;orthogonalLoop=1;jettySize=auto;html=1;entryX=1;entryY=0.5;entryDx=0;entryDy=0;startArrow=ERmany;startFill=0;endArrow=oval;endFill=0;fontSize=14;" edge="1" parent="WIyWlLk6GJQsqaUBKTNV-1" source="SeS7IKpGNt4qQR1CJ_jI-0" target="h_7XjAvWhaXfRPcOhmmS-38">
          <mxGeometry relative="1" as="geometry" />
        </mxCell>
        <mxCell id="SeS7IKpGNt4qQR1CJ_jI-0" value="Goal" style="shape=table;html=1;whiteSpace=wrap;startSize=30;container=1;collapsible=0;childLayout=tableLayout;fixedRows=1;rowLines=0;fontStyle=1;align=center;fillColor=#f8cecc;strokeColor=#b85450;" vertex="1" parent="WIyWlLk6GJQsqaUBKTNV-1">
          <mxGeometry x="750" y="240" width="180" height="170" as="geometry" />
        </mxCell>
        <mxCell id="SeS7IKpGNt4qQR1CJ_jI-1" value="" style="shape=partialRectangle;html=1;whiteSpace=wrap;collapsible=0;dropTarget=0;pointerEvents=0;fillColor=none;top=0;left=0;bottom=1;right=0;points=[[0,0.5],[1,0.5]];portConstraint=eastwest;" vertex="1" parent="SeS7IKpGNt4qQR1CJ_jI-0">
          <mxGeometry y="30" width="180" height="30" as="geometry" />
        </mxCell>
        <mxCell id="SeS7IKpGNt4qQR1CJ_jI-2" value="PK" style="shape=partialRectangle;html=1;whiteSpace=wrap;connectable=0;fillColor=none;top=0;left=0;bottom=0;right=0;overflow=hidden;" vertex="1" parent="SeS7IKpGNt4qQR1CJ_jI-1">
          <mxGeometry width="40" height="30" as="geometry" />
        </mxCell>
        <mxCell id="SeS7IKpGNt4qQR1CJ_jI-3" value="Id_goal" style="shape=partialRectangle;html=1;whiteSpace=wrap;connectable=0;fillColor=none;top=0;left=0;bottom=0;right=0;align=left;spacingLeft=6;overflow=hidden;" vertex="1" parent="SeS7IKpGNt4qQR1CJ_jI-1">
          <mxGeometry x="40" width="140" height="30" as="geometry" />
        </mxCell>
        <mxCell id="SeS7IKpGNt4qQR1CJ_jI-4" value="" style="shape=partialRectangle;html=1;whiteSpace=wrap;collapsible=0;dropTarget=0;pointerEvents=0;fillColor=none;top=0;left=0;bottom=0;right=0;points=[[0,0.5],[1,0.5]];portConstraint=eastwest;" vertex="1" parent="SeS7IKpGNt4qQR1CJ_jI-0">
          <mxGeometry y="60" width="180" height="50" as="geometry" />
        </mxCell>
        <mxCell id="SeS7IKpGNt4qQR1CJ_jI-5" value="" style="shape=partialRectangle;html=1;whiteSpace=wrap;connectable=0;fillColor=none;top=0;left=0;bottom=0;right=0;overflow=hidden;" vertex="1" parent="SeS7IKpGNt4qQR1CJ_jI-4">
          <mxGeometry width="40" height="50" as="geometry" />
        </mxCell>
        <mxCell id="SeS7IKpGNt4qQR1CJ_jI-6" value="minuto&lt;br&gt;secondo&lt;br&gt;tipo" style="shape=partialRectangle;html=1;whiteSpace=wrap;connectable=0;fillColor=none;top=0;left=0;bottom=0;right=0;align=left;spacingLeft=6;overflow=hidden;" vertex="1" parent="SeS7IKpGNt4qQR1CJ_jI-4">
          <mxGeometry x="40" width="140" height="50" as="geometry" />
        </mxCell>
        <mxCell id="SeS7IKpGNt4qQR1CJ_jI-7" value="" style="shape=partialRectangle;html=1;whiteSpace=wrap;collapsible=0;dropTarget=0;pointerEvents=0;fillColor=none;top=0;left=0;bottom=0;right=0;points=[[0,0.5],[1,0.5]];portConstraint=eastwest;" vertex="1" parent="SeS7IKpGNt4qQR1CJ_jI-0">
          <mxGeometry y="110" width="180" height="30" as="geometry" />
        </mxCell>
        <mxCell id="SeS7IKpGNt4qQR1CJ_jI-8" value="FK" style="shape=partialRectangle;html=1;whiteSpace=wrap;connectable=0;fillColor=none;top=0;left=0;bottom=0;right=0;overflow=hidden;" vertex="1" parent="SeS7IKpGNt4qQR1CJ_jI-7">
          <mxGeometry width="40" height="30" as="geometry" />
        </mxCell>
        <mxCell id="SeS7IKpGNt4qQR1CJ_jI-9" value="Id_distinta" style="shape=partialRectangle;html=1;whiteSpace=wrap;connectable=0;fillColor=none;top=0;left=0;bottom=0;right=0;align=left;spacingLeft=6;overflow=hidden;" vertex="1" parent="SeS7IKpGNt4qQR1CJ_jI-7">
          <mxGeometry x="40" width="140" height="30" as="geometry" />
        </mxCell>
        <mxCell id="SeS7IKpGNt4qQR1CJ_jI-10" value="" style="shape=partialRectangle;html=1;whiteSpace=wrap;collapsible=0;dropTarget=0;pointerEvents=0;fillColor=none;top=0;left=0;bottom=0;right=0;points=[[0,0.5],[1,0.5]];portConstraint=eastwest;" vertex="1" parent="SeS7IKpGNt4qQR1CJ_jI-0">
          <mxGeometry y="140" width="180" height="30" as="geometry" />
        </mxCell>
        <mxCell id="SeS7IKpGNt4qQR1CJ_jI-11" value="" style="shape=partialRectangle;html=1;whiteSpace=wrap;connectable=0;fillColor=none;top=0;left=0;bottom=0;right=0;overflow=hidden;" vertex="1" parent="SeS7IKpGNt4qQR1CJ_jI-10">
          <mxGeometry width="40" height="30" as="geometry" />
        </mxCell>
        <mxCell id="SeS7IKpGNt4qQR1CJ_jI-12" value="" style="shape=partialRectangle;html=1;whiteSpace=wrap;connectable=0;fillColor=none;top=0;left=0;bottom=0;right=0;align=left;spacingLeft=6;overflow=hidden;" vertex="1" parent="SeS7IKpGNt4qQR1CJ_jI-10">
          <mxGeometry x="40" width="140" height="30" as="geometry" />
        </mxCell>
        <mxCell id="lzWlHIOBNX2eGFw-Sq9X-102" style="edgeStyle=orthogonalEdgeStyle;rounded=0;orthogonalLoop=1;jettySize=auto;html=1;entryX=1;entryY=0.5;entryDx=0;entryDy=0;startArrow=ERmany;startFill=0;endArrow=oval;endFill=0;fontSize=14;" edge="1" parent="WIyWlLk6GJQsqaUBKTNV-1" source="lzWlHIOBNX2eGFw-Sq9X-0" target="h_7XjAvWhaXfRPcOhmmS-35">
          <mxGeometry relative="1" as="geometry" />
        </mxCell>
        <mxCell id="lzWlHIOBNX2eGFw-Sq9X-0" value="Sostituzione" style="shape=table;html=1;whiteSpace=wrap;startSize=30;container=1;collapsible=0;childLayout=tableLayout;fixedRows=1;rowLines=0;fontStyle=1;align=center;fillColor=#f8cecc;strokeColor=#b85450;" vertex="1" parent="WIyWlLk6GJQsqaUBKTNV-1">
          <mxGeometry x="1030" y="240" width="180" height="170" as="geometry" />
        </mxCell>
        <mxCell id="lzWlHIOBNX2eGFw-Sq9X-1" value="" style="shape=partialRectangle;html=1;whiteSpace=wrap;collapsible=0;dropTarget=0;pointerEvents=0;fillColor=none;top=0;left=0;bottom=1;right=0;points=[[0,0.5],[1,0.5]];portConstraint=eastwest;" vertex="1" parent="lzWlHIOBNX2eGFw-Sq9X-0">
          <mxGeometry y="30" width="180" height="30" as="geometry" />
        </mxCell>
        <mxCell id="lzWlHIOBNX2eGFw-Sq9X-2" value="PK" style="shape=partialRectangle;html=1;whiteSpace=wrap;connectable=0;fillColor=none;top=0;left=0;bottom=0;right=0;overflow=hidden;" vertex="1" parent="lzWlHIOBNX2eGFw-Sq9X-1">
          <mxGeometry width="40" height="30" as="geometry" />
        </mxCell>
        <mxCell id="lzWlHIOBNX2eGFw-Sq9X-3" value="Id_sostituzione" style="shape=partialRectangle;html=1;whiteSpace=wrap;connectable=0;fillColor=none;top=0;left=0;bottom=0;right=0;align=left;spacingLeft=6;overflow=hidden;" vertex="1" parent="lzWlHIOBNX2eGFw-Sq9X-1">
          <mxGeometry x="40" width="140" height="30" as="geometry" />
        </mxCell>
        <mxCell id="lzWlHIOBNX2eGFw-Sq9X-4" value="" style="shape=partialRectangle;html=1;whiteSpace=wrap;collapsible=0;dropTarget=0;pointerEvents=0;fillColor=none;top=0;left=0;bottom=0;right=0;points=[[0,0.5],[1,0.5]];portConstraint=eastwest;" vertex="1" parent="lzWlHIOBNX2eGFw-Sq9X-0">
          <mxGeometry y="60" width="180" height="50" as="geometry" />
        </mxCell>
        <mxCell id="lzWlHIOBNX2eGFw-Sq9X-5" value="" style="shape=partialRectangle;html=1;whiteSpace=wrap;connectable=0;fillColor=none;top=0;left=0;bottom=0;right=0;overflow=hidden;" vertex="1" parent="lzWlHIOBNX2eGFw-Sq9X-4">
          <mxGeometry width="40" height="50" as="geometry" />
        </mxCell>
        <mxCell id="lzWlHIOBNX2eGFw-Sq9X-6" value="minuto&lt;br&gt;durata" style="shape=partialRectangle;html=1;whiteSpace=wrap;connectable=0;fillColor=none;top=0;left=0;bottom=0;right=0;align=left;spacingLeft=6;overflow=hidden;" vertex="1" parent="lzWlHIOBNX2eGFw-Sq9X-4">
          <mxGeometry x="40" width="140" height="50" as="geometry" />
        </mxCell>
        <mxCell id="lzWlHIOBNX2eGFw-Sq9X-7" value="" style="shape=partialRectangle;html=1;whiteSpace=wrap;collapsible=0;dropTarget=0;pointerEvents=0;fillColor=none;top=0;left=0;bottom=0;right=0;points=[[0,0.5],[1,0.5]];portConstraint=eastwest;" vertex="1" parent="lzWlHIOBNX2eGFw-Sq9X-0">
          <mxGeometry y="110" width="180" height="30" as="geometry" />
        </mxCell>
        <mxCell id="lzWlHIOBNX2eGFw-Sq9X-8" value="FK" style="shape=partialRectangle;html=1;whiteSpace=wrap;connectable=0;fillColor=none;top=0;left=0;bottom=0;right=0;overflow=hidden;" vertex="1" parent="lzWlHIOBNX2eGFw-Sq9X-7">
          <mxGeometry width="40" height="30" as="geometry" />
        </mxCell>
        <mxCell id="lzWlHIOBNX2eGFw-Sq9X-9" value="Id_distinta" style="shape=partialRectangle;html=1;whiteSpace=wrap;connectable=0;fillColor=none;top=0;left=0;bottom=0;right=0;align=left;spacingLeft=6;overflow=hidden;" vertex="1" parent="lzWlHIOBNX2eGFw-Sq9X-7">
          <mxGeometry x="40" width="140" height="30" as="geometry" />
        </mxCell>
        <mxCell id="lzWlHIOBNX2eGFw-Sq9X-10" value="" style="shape=partialRectangle;html=1;whiteSpace=wrap;collapsible=0;dropTarget=0;pointerEvents=0;fillColor=none;top=0;left=0;bottom=0;right=0;points=[[0,0.5],[1,0.5]];portConstraint=eastwest;" vertex="1" parent="lzWlHIOBNX2eGFw-Sq9X-0">
          <mxGeometry y="140" width="180" height="30" as="geometry" />
        </mxCell>
        <mxCell id="lzWlHIOBNX2eGFw-Sq9X-11" value="" style="shape=partialRectangle;html=1;whiteSpace=wrap;connectable=0;fillColor=none;top=0;left=0;bottom=0;right=0;overflow=hidden;" vertex="1" parent="lzWlHIOBNX2eGFw-Sq9X-10">
          <mxGeometry width="40" height="30" as="geometry" />
        </mxCell>
        <mxCell id="lzWlHIOBNX2eGFw-Sq9X-12" value="" style="shape=partialRectangle;html=1;whiteSpace=wrap;connectable=0;fillColor=none;top=0;left=0;bottom=0;right=0;align=left;spacingLeft=6;overflow=hidden;" vertex="1" parent="lzWlHIOBNX2eGFw-Sq9X-10">
          <mxGeometry x="40" width="140" height="30" as="geometry" />
        </mxCell>
        <mxCell id="lzWlHIOBNX2eGFw-Sq9X-98" style="edgeStyle=orthogonalEdgeStyle;rounded=0;orthogonalLoop=1;jettySize=auto;html=1;entryX=0.446;entryY=0.002;entryDx=0;entryDy=0;entryPerimeter=0;startArrow=ERmany;startFill=0;endArrow=ERmany;endFill=0;" edge="1" parent="WIyWlLk6GJQsqaUBKTNV-1" source="h_7XjAvWhaXfRPcOhmmS-14" target="SeS7IKpGNt4qQR1CJ_jI-0">
          <mxGeometry relative="1" as="geometry" />
        </mxCell>
        <mxCell id="lzWlHIOBNX2eGFw-Sq9X-99" value="puo fare" style="text;html=1;strokeColor=none;fillColor=none;align=center;verticalAlign=middle;whiteSpace=wrap;rounded=0;fontStyle=1;fontSize=14;" vertex="1" parent="WIyWlLk6GJQsqaUBKTNV-1">
          <mxGeometry x="774" y="105" width="53" height="20" as="geometry" />
        </mxCell>
        <mxCell id="lzWlHIOBNX2eGFw-Sq9X-101" style="edgeStyle=orthogonalEdgeStyle;rounded=0;orthogonalLoop=1;jettySize=auto;html=1;startArrow=oval;startFill=0;endArrow=ERmany;endFill=0;fontSize=14;" edge="1" parent="WIyWlLk6GJQsqaUBKTNV-1" source="h_7XjAvWhaXfRPcOhmmS-11" target="lzWlHIOBNX2eGFw-Sq9X-0">
          <mxGeometry relative="1" as="geometry" />
        </mxCell>
      </root>
    </mxGraphModel>
  </diagram>
  <diagram id="KxivBdwhIUyTPti3RrCq" name="LOGICO">
    <mxGraphModel dx="782" dy="514" grid="1" gridSize="10" guides="1" tooltips="1" connect="1" arrows="1" fold="1" page="1" pageScale="1" pageWidth="827" pageHeight="1169" math="0" shadow="0">
      <root>
        <mxCell id="uaCEyn_hK47C4jp3-MxF-0" />
        <mxCell id="uaCEyn_hK47C4jp3-MxF-1" parent="uaCEyn_hK47C4jp3-MxF-0" />
        <mxCell id="ViXsvkIMtPRjhxcs-rpP-0" style="rounded=0;orthogonalLoop=1;jettySize=auto;html=1;entryX=0;entryY=0.229;entryDx=0;entryDy=0;entryPerimeter=0;endArrow=ERmany;endFill=0;" parent="uaCEyn_hK47C4jp3-MxF-1" source="ViXsvkIMtPRjhxcs-rpP-1" target="ViXsvkIMtPRjhxcs-rpP-18" edge="1">
          <mxGeometry relative="1" as="geometry" />
        </mxCell>
        <mxCell id="ViXsvkIMtPRjhxcs-rpP-1" value="squadra" style="shape=table;html=1;whiteSpace=wrap;startSize=30;container=1;collapsible=0;childLayout=tableLayout;fixedRows=1;rowLines=0;fontStyle=1;align=center;fillColor=#f8cecc;strokeColor=#b85450;" parent="uaCEyn_hK47C4jp3-MxF-1" vertex="1">
          <mxGeometry x="30" y="40" width="180" height="150" as="geometry" />
        </mxCell>
        <mxCell id="ViXsvkIMtPRjhxcs-rpP-2" value="" style="shape=partialRectangle;html=1;whiteSpace=wrap;collapsible=0;dropTarget=0;pointerEvents=0;fillColor=none;top=0;left=0;bottom=1;right=0;points=[[0,0.5],[1,0.5]];portConstraint=eastwest;" parent="ViXsvkIMtPRjhxcs-rpP-1" vertex="1">
          <mxGeometry y="30" width="180" height="30" as="geometry" />
        </mxCell>
        <mxCell id="ViXsvkIMtPRjhxcs-rpP-3" value="PK" style="shape=partialRectangle;html=1;whiteSpace=wrap;connectable=0;fillColor=none;top=0;left=0;bottom=0;right=0;overflow=hidden;" parent="ViXsvkIMtPRjhxcs-rpP-2" vertex="1">
          <mxGeometry width="40" height="30" as="geometry" />
        </mxCell>
        <mxCell id="ViXsvkIMtPRjhxcs-rpP-4" value="Id_squadra" style="shape=partialRectangle;html=1;whiteSpace=wrap;connectable=0;fillColor=none;top=0;left=0;bottom=0;right=0;align=left;spacingLeft=6;overflow=hidden;" parent="ViXsvkIMtPRjhxcs-rpP-2" vertex="1">
          <mxGeometry x="40" width="140" height="30" as="geometry" />
        </mxCell>
        <mxCell id="ViXsvkIMtPRjhxcs-rpP-5" value="" style="shape=partialRectangle;html=1;whiteSpace=wrap;collapsible=0;dropTarget=0;pointerEvents=0;fillColor=none;top=0;left=0;bottom=0;right=0;points=[[0,0.5],[1,0.5]];portConstraint=eastwest;" parent="ViXsvkIMtPRjhxcs-rpP-1" vertex="1">
          <mxGeometry y="60" width="180" height="30" as="geometry" />
        </mxCell>
        <mxCell id="ViXsvkIMtPRjhxcs-rpP-6" value="" style="shape=partialRectangle;html=1;whiteSpace=wrap;connectable=0;fillColor=none;top=0;left=0;bottom=0;right=0;overflow=hidden;" parent="ViXsvkIMtPRjhxcs-rpP-5" vertex="1">
          <mxGeometry width="40" height="30" as="geometry" />
        </mxCell>
        <mxCell id="ViXsvkIMtPRjhxcs-rpP-7" value="nome_squadra" style="shape=partialRectangle;html=1;whiteSpace=wrap;connectable=0;fillColor=none;top=0;left=0;bottom=0;right=0;align=left;spacingLeft=6;overflow=hidden;" parent="ViXsvkIMtPRjhxcs-rpP-5" vertex="1">
          <mxGeometry x="40" width="140" height="30" as="geometry" />
        </mxCell>
        <mxCell id="ViXsvkIMtPRjhxcs-rpP-8" value="" style="shape=partialRectangle;html=1;whiteSpace=wrap;collapsible=0;dropTarget=0;pointerEvents=0;fillColor=none;top=0;left=0;bottom=0;right=0;points=[[0,0.5],[1,0.5]];portConstraint=eastwest;" parent="ViXsvkIMtPRjhxcs-rpP-1" vertex="1">
          <mxGeometry y="90" width="180" height="30" as="geometry" />
        </mxCell>
        <mxCell id="ViXsvkIMtPRjhxcs-rpP-9" value="" style="shape=partialRectangle;html=1;whiteSpace=wrap;connectable=0;fillColor=none;top=0;left=0;bottom=0;right=0;overflow=hidden;" parent="ViXsvkIMtPRjhxcs-rpP-8" vertex="1">
          <mxGeometry width="40" height="30" as="geometry" />
        </mxCell>
        <mxCell id="ViXsvkIMtPRjhxcs-rpP-10" value="" style="shape=partialRectangle;html=1;whiteSpace=wrap;connectable=0;fillColor=none;top=0;left=0;bottom=0;right=0;align=left;spacingLeft=6;overflow=hidden;" parent="ViXsvkIMtPRjhxcs-rpP-8" vertex="1">
          <mxGeometry x="40" width="140" height="30" as="geometry" />
        </mxCell>
        <mxCell id="ViXsvkIMtPRjhxcs-rpP-11" value="" style="shape=partialRectangle;html=1;whiteSpace=wrap;collapsible=0;dropTarget=0;pointerEvents=0;fillColor=none;top=0;left=0;bottom=0;right=0;points=[[0,0.5],[1,0.5]];portConstraint=eastwest;" parent="ViXsvkIMtPRjhxcs-rpP-1" vertex="1">
          <mxGeometry y="120" width="180" height="30" as="geometry" />
        </mxCell>
        <mxCell id="ViXsvkIMtPRjhxcs-rpP-12" value="" style="shape=partialRectangle;html=1;whiteSpace=wrap;connectable=0;fillColor=none;top=0;left=0;bottom=0;right=0;overflow=hidden;" parent="ViXsvkIMtPRjhxcs-rpP-11" vertex="1">
          <mxGeometry width="40" height="30" as="geometry" />
        </mxCell>
        <mxCell id="ViXsvkIMtPRjhxcs-rpP-13" value="" style="shape=partialRectangle;html=1;whiteSpace=wrap;connectable=0;fillColor=none;top=0;left=0;bottom=0;right=0;align=left;spacingLeft=6;overflow=hidden;" parent="ViXsvkIMtPRjhxcs-rpP-11" vertex="1">
          <mxGeometry x="40" width="140" height="30" as="geometry" />
        </mxCell>
        <mxCell id="ViXsvkIMtPRjhxcs-rpP-61" style="rounded=0;orthogonalLoop=1;jettySize=auto;html=1;entryX=0.45;entryY=-0.013;entryDx=0;entryDy=0;entryPerimeter=0;endArrow=ERmany;endFill=0;" parent="uaCEyn_hK47C4jp3-MxF-1" source="ViXsvkIMtPRjhxcs-rpP-14" target="ViXsvkIMtPRjhxcs-rpP-47" edge="1">
          <mxGeometry relative="1" as="geometry" />
        </mxCell>
        <mxCell id="ViXsvkIMtPRjhxcs-rpP-14" value="Giocatore" style="shape=table;html=1;whiteSpace=wrap;startSize=30;container=1;collapsible=0;childLayout=tableLayout;fixedRows=1;rowLines=0;fontStyle=1;align=center;fillColor=#f8cecc;strokeColor=#b85450;" parent="uaCEyn_hK47C4jp3-MxF-1" vertex="1">
          <mxGeometry x="490" y="40" width="180" height="160" as="geometry" />
        </mxCell>
        <mxCell id="ViXsvkIMtPRjhxcs-rpP-15" value="" style="shape=partialRectangle;html=1;whiteSpace=wrap;collapsible=0;dropTarget=0;pointerEvents=0;fillColor=none;top=0;left=0;bottom=1;right=0;points=[[0,0.5],[1,0.5]];portConstraint=eastwest;" parent="ViXsvkIMtPRjhxcs-rpP-14" vertex="1">
          <mxGeometry y="30" width="180" height="30" as="geometry" />
        </mxCell>
        <mxCell id="ViXsvkIMtPRjhxcs-rpP-16" value="PK" style="shape=partialRectangle;html=1;whiteSpace=wrap;connectable=0;fillColor=none;top=0;left=0;bottom=0;right=0;overflow=hidden;" parent="ViXsvkIMtPRjhxcs-rpP-15" vertex="1">
          <mxGeometry width="40" height="30" as="geometry" />
        </mxCell>
        <mxCell id="ViXsvkIMtPRjhxcs-rpP-17" value="Id_giocatore" style="shape=partialRectangle;html=1;whiteSpace=wrap;connectable=0;fillColor=none;top=0;left=0;bottom=0;right=0;align=left;spacingLeft=6;overflow=hidden;" parent="ViXsvkIMtPRjhxcs-rpP-15" vertex="1">
          <mxGeometry x="40" width="140" height="30" as="geometry" />
        </mxCell>
        <mxCell id="ViXsvkIMtPRjhxcs-rpP-18" value="" style="shape=partialRectangle;html=1;whiteSpace=wrap;collapsible=0;dropTarget=0;pointerEvents=0;fillColor=none;top=0;left=0;bottom=0;right=0;points=[[0,0.5],[1,0.5]];portConstraint=eastwest;" parent="ViXsvkIMtPRjhxcs-rpP-14" vertex="1">
          <mxGeometry y="60" width="180" height="70" as="geometry" />
        </mxCell>
        <mxCell id="ViXsvkIMtPRjhxcs-rpP-19" value="" style="shape=partialRectangle;html=1;whiteSpace=wrap;connectable=0;fillColor=none;top=0;left=0;bottom=0;right=0;overflow=hidden;" parent="ViXsvkIMtPRjhxcs-rpP-18" vertex="1">
          <mxGeometry width="40" height="70" as="geometry" />
        </mxCell>
        <mxCell id="ViXsvkIMtPRjhxcs-rpP-20" value="nome&lt;br&gt;cognome&lt;br&gt;ruolo&lt;br&gt;num_maglia" style="shape=partialRectangle;html=1;whiteSpace=wrap;connectable=0;fillColor=none;top=0;left=0;bottom=0;right=0;align=left;spacingLeft=6;overflow=hidden;" parent="ViXsvkIMtPRjhxcs-rpP-18" vertex="1">
          <mxGeometry x="40" width="140" height="70" as="geometry" />
        </mxCell>
        <mxCell id="ViXsvkIMtPRjhxcs-rpP-21" value="" style="shape=partialRectangle;html=1;whiteSpace=wrap;collapsible=0;dropTarget=0;pointerEvents=0;fillColor=none;top=0;left=0;bottom=0;right=0;points=[[0,0.5],[1,0.5]];portConstraint=eastwest;" parent="ViXsvkIMtPRjhxcs-rpP-14" vertex="1">
          <mxGeometry y="130" width="180" height="30" as="geometry" />
        </mxCell>
        <mxCell id="ViXsvkIMtPRjhxcs-rpP-22" value="" style="shape=partialRectangle;html=1;whiteSpace=wrap;connectable=0;fillColor=none;top=0;left=0;bottom=0;right=0;overflow=hidden;" parent="ViXsvkIMtPRjhxcs-rpP-21" vertex="1">
          <mxGeometry width="40" height="30" as="geometry" />
        </mxCell>
        <mxCell id="ViXsvkIMtPRjhxcs-rpP-23" value="" style="shape=partialRectangle;html=1;whiteSpace=wrap;connectable=0;fillColor=none;top=0;left=0;bottom=0;right=0;align=left;spacingLeft=6;overflow=hidden;" parent="ViXsvkIMtPRjhxcs-rpP-21" vertex="1">
          <mxGeometry x="40" width="140" height="30" as="geometry" />
        </mxCell>
        <mxCell id="ViXsvkIMtPRjhxcs-rpP-24" value="&amp;lt;Gioca" style="text;html=1;strokeColor=none;fillColor=none;align=center;verticalAlign=middle;whiteSpace=wrap;rounded=0;fontStyle=1;fontSize=14;" parent="uaCEyn_hK47C4jp3-MxF-1" vertex="1">
          <mxGeometry x="270" y="80" width="40" height="20" as="geometry" />
        </mxCell>
        <mxCell id="ViXsvkIMtPRjhxcs-rpP-25" style="edgeStyle=none;rounded=0;orthogonalLoop=1;jettySize=auto;html=1;endArrow=none;endFill=0;entryX=0.989;entryY=0.067;entryDx=0;entryDy=0;entryPerimeter=0;startArrow=oval;startFill=1;" parent="uaCEyn_hK47C4jp3-MxF-1" source="ViXsvkIMtPRjhxcs-rpP-18" target="ViXsvkIMtPRjhxcs-rpP-8" edge="1">
          <mxGeometry relative="1" as="geometry">
            <mxPoint x="350" y="135" as="targetPoint" />
          </mxGeometry>
        </mxCell>
        <mxCell id="ViXsvkIMtPRjhxcs-rpP-26" value="&lt;b style=&quot;font-size: 14px;&quot;&gt;&amp;lt;allena&lt;/b&gt;" style="text;html=1;strokeColor=none;fillColor=none;align=center;verticalAlign=middle;whiteSpace=wrap;rounded=0;fontSize=14;" parent="uaCEyn_hK47C4jp3-MxF-1" vertex="1">
          <mxGeometry x="270" y="140" width="40" height="20" as="geometry" />
        </mxCell>
        <mxCell id="ViXsvkIMtPRjhxcs-rpP-27" style="edgeStyle=none;rounded=0;orthogonalLoop=1;jettySize=auto;html=1;entryX=0.561;entryY=1.067;entryDx=0;entryDy=0;entryPerimeter=0;startArrow=none;startFill=0;endArrow=none;endFill=0;fontSize=14;" parent="uaCEyn_hK47C4jp3-MxF-1" source="ViXsvkIMtPRjhxcs-rpP-30" target="ViXsvkIMtPRjhxcs-rpP-11" edge="1">
          <mxGeometry relative="1" as="geometry" />
        </mxCell>
        <mxCell id="ViXsvkIMtPRjhxcs-rpP-28" style="edgeStyle=none;rounded=0;orthogonalLoop=1;jettySize=auto;html=1;exitX=0.75;exitY=0;exitDx=0;exitDy=0;startArrow=none;startFill=0;endArrow=none;endFill=0;fontSize=14;entryX=0.789;entryY=1;entryDx=0;entryDy=0;entryPerimeter=0;" parent="uaCEyn_hK47C4jp3-MxF-1" source="ViXsvkIMtPRjhxcs-rpP-30" target="ViXsvkIMtPRjhxcs-rpP-11" edge="1">
          <mxGeometry relative="1" as="geometry">
            <mxPoint x="175" y="260" as="targetPoint" />
          </mxGeometry>
        </mxCell>
        <mxCell id="ViXsvkIMtPRjhxcs-rpP-30" value="Partita" style="shape=table;html=1;whiteSpace=wrap;startSize=30;container=1;collapsible=0;childLayout=tableLayout;fixedRows=1;rowLines=0;fontStyle=1;align=center;fillColor=#f8cecc;strokeColor=#b85450;" parent="uaCEyn_hK47C4jp3-MxF-1" vertex="1">
          <mxGeometry x="40" y="320" width="180" height="170" as="geometry" />
        </mxCell>
        <mxCell id="ViXsvkIMtPRjhxcs-rpP-31" value="" style="shape=partialRectangle;html=1;whiteSpace=wrap;collapsible=0;dropTarget=0;pointerEvents=0;fillColor=none;top=0;left=0;bottom=1;right=0;points=[[0,0.5],[1,0.5]];portConstraint=eastwest;" parent="ViXsvkIMtPRjhxcs-rpP-30" vertex="1">
          <mxGeometry y="30" width="180" height="30" as="geometry" />
        </mxCell>
        <mxCell id="ViXsvkIMtPRjhxcs-rpP-32" value="PK" style="shape=partialRectangle;html=1;whiteSpace=wrap;connectable=0;fillColor=none;top=0;left=0;bottom=0;right=0;overflow=hidden;" parent="ViXsvkIMtPRjhxcs-rpP-31" vertex="1">
          <mxGeometry width="40" height="30" as="geometry" />
        </mxCell>
        <mxCell id="ViXsvkIMtPRjhxcs-rpP-33" value="Id_partita" style="shape=partialRectangle;html=1;whiteSpace=wrap;connectable=0;fillColor=none;top=0;left=0;bottom=0;right=0;align=left;spacingLeft=6;overflow=hidden;" parent="ViXsvkIMtPRjhxcs-rpP-31" vertex="1">
          <mxGeometry x="40" width="140" height="30" as="geometry" />
        </mxCell>
        <mxCell id="ViXsvkIMtPRjhxcs-rpP-34" value="" style="shape=partialRectangle;html=1;whiteSpace=wrap;collapsible=0;dropTarget=0;pointerEvents=0;fillColor=none;top=0;left=0;bottom=0;right=0;points=[[0,0.5],[1,0.5]];portConstraint=eastwest;" parent="ViXsvkIMtPRjhxcs-rpP-30" vertex="1">
          <mxGeometry y="60" width="180" height="50" as="geometry" />
        </mxCell>
        <mxCell id="ViXsvkIMtPRjhxcs-rpP-35" value="" style="shape=partialRectangle;html=1;whiteSpace=wrap;connectable=0;fillColor=none;top=0;left=0;bottom=0;right=0;overflow=hidden;" parent="ViXsvkIMtPRjhxcs-rpP-34" vertex="1">
          <mxGeometry width="40" height="50" as="geometry" />
        </mxCell>
        <mxCell id="ViXsvkIMtPRjhxcs-rpP-36" value="luogo&lt;br&gt;data&lt;br&gt;ora" style="shape=partialRectangle;html=1;whiteSpace=wrap;connectable=0;fillColor=none;top=0;left=0;bottom=0;right=0;align=left;spacingLeft=6;overflow=hidden;" parent="ViXsvkIMtPRjhxcs-rpP-34" vertex="1">
          <mxGeometry x="40" width="140" height="50" as="geometry" />
        </mxCell>
        <mxCell id="ViXsvkIMtPRjhxcs-rpP-37" value="" style="shape=partialRectangle;html=1;whiteSpace=wrap;collapsible=0;dropTarget=0;pointerEvents=0;fillColor=none;top=0;left=0;bottom=0;right=0;points=[[0,0.5],[1,0.5]];portConstraint=eastwest;" parent="ViXsvkIMtPRjhxcs-rpP-30" vertex="1">
          <mxGeometry y="110" width="180" height="30" as="geometry" />
        </mxCell>
        <mxCell id="ViXsvkIMtPRjhxcs-rpP-38" value="" style="shape=partialRectangle;html=1;whiteSpace=wrap;connectable=0;fillColor=none;top=0;left=0;bottom=0;right=0;overflow=hidden;" parent="ViXsvkIMtPRjhxcs-rpP-37" vertex="1">
          <mxGeometry width="40" height="30" as="geometry" />
        </mxCell>
        <mxCell id="ViXsvkIMtPRjhxcs-rpP-39" value="" style="shape=partialRectangle;html=1;whiteSpace=wrap;connectable=0;fillColor=none;top=0;left=0;bottom=0;right=0;align=left;spacingLeft=6;overflow=hidden;" parent="ViXsvkIMtPRjhxcs-rpP-37" vertex="1">
          <mxGeometry x="40" width="140" height="30" as="geometry" />
        </mxCell>
        <mxCell id="ViXsvkIMtPRjhxcs-rpP-40" value="" style="shape=partialRectangle;html=1;whiteSpace=wrap;collapsible=0;dropTarget=0;pointerEvents=0;fillColor=none;top=0;left=0;bottom=0;right=0;points=[[0,0.5],[1,0.5]];portConstraint=eastwest;" parent="ViXsvkIMtPRjhxcs-rpP-30" vertex="1">
          <mxGeometry y="140" width="180" height="30" as="geometry" />
        </mxCell>
        <mxCell id="ViXsvkIMtPRjhxcs-rpP-41" value="" style="shape=partialRectangle;html=1;whiteSpace=wrap;connectable=0;fillColor=none;top=0;left=0;bottom=0;right=0;overflow=hidden;" parent="ViXsvkIMtPRjhxcs-rpP-40" vertex="1">
          <mxGeometry width="40" height="30" as="geometry" />
        </mxCell>
        <mxCell id="ViXsvkIMtPRjhxcs-rpP-42" value="" style="shape=partialRectangle;html=1;whiteSpace=wrap;connectable=0;fillColor=none;top=0;left=0;bottom=0;right=0;align=left;spacingLeft=6;overflow=hidden;" parent="ViXsvkIMtPRjhxcs-rpP-40" vertex="1">
          <mxGeometry x="40" width="140" height="30" as="geometry" />
        </mxCell>
        <mxCell id="ViXsvkIMtPRjhxcs-rpP-43" value="partecipda&lt;br&gt;in casa&amp;gt;" style="text;html=1;strokeColor=none;fillColor=none;align=center;verticalAlign=middle;whiteSpace=wrap;rounded=0;fontSize=14;rotation=90;fontStyle=1" parent="uaCEyn_hK47C4jp3-MxF-1" vertex="1">
          <mxGeometry x="50" y="250" width="100" height="20" as="geometry" />
        </mxCell>
        <mxCell id="ViXsvkIMtPRjhxcs-rpP-44" value="partecipda&lt;br&gt;ospite&amp;gt;" style="text;html=1;strokeColor=none;fillColor=none;align=center;verticalAlign=middle;whiteSpace=wrap;rounded=0;fontSize=14;rotation=90;fontStyle=1" parent="uaCEyn_hK47C4jp3-MxF-1" vertex="1">
          <mxGeometry x="150" y="250" width="100" height="20" as="geometry" />
        </mxCell>
        <mxCell id="ViXsvkIMtPRjhxcs-rpP-45" value="&amp;lt;convocato" style="text;html=1;strokeColor=none;fillColor=none;align=center;verticalAlign=middle;whiteSpace=wrap;rounded=0;fontSize=14;fontStyle=1" parent="uaCEyn_hK47C4jp3-MxF-1" vertex="1">
          <mxGeometry x="369" y="270" width="90" height="20" as="geometry" />
        </mxCell>
        <mxCell id="ViXsvkIMtPRjhxcs-rpP-46" value="&lt;span style=&quot;font-size: 26px&quot;&gt;&lt;b&gt;&lt;i&gt;LOGICO&lt;/i&gt;&lt;/b&gt;&lt;/span&gt;" style="text;html=1;strokeColor=none;fillColor=none;align=center;verticalAlign=middle;whiteSpace=wrap;rounded=0;fontSize=14;" parent="uaCEyn_hK47C4jp3-MxF-1" vertex="1">
          <mxGeometry x="350" y="10" width="40" height="20" as="geometry" />
        </mxCell>
        <mxCell id="ViXsvkIMtPRjhxcs-rpP-75" style="edgeStyle=none;rounded=0;orthogonalLoop=1;jettySize=auto;html=1;endArrow=ERmany;endFill=0;" parent="uaCEyn_hK47C4jp3-MxF-1" source="ViXsvkIMtPRjhxcs-rpP-47" target="ViXsvkIMtPRjhxcs-rpP-62" edge="1">
          <mxGeometry relative="1" as="geometry" />
        </mxCell>
        <mxCell id="ViXsvkIMtPRjhxcs-rpP-47" value="Distinta" style="shape=table;html=1;whiteSpace=wrap;startSize=30;container=1;collapsible=0;childLayout=tableLayout;fixedRows=1;rowLines=0;fontStyle=1;align=center;fillColor=#f8cecc;strokeColor=#b85450;" parent="uaCEyn_hK47C4jp3-MxF-1" vertex="1">
          <mxGeometry x="500" y="310" width="180" height="150" as="geometry" />
        </mxCell>
        <mxCell id="ViXsvkIMtPRjhxcs-rpP-48" value="" style="shape=partialRectangle;html=1;whiteSpace=wrap;collapsible=0;dropTarget=0;pointerEvents=0;fillColor=none;top=0;left=0;bottom=1;right=0;points=[[0,0.5],[1,0.5]];portConstraint=eastwest;" parent="ViXsvkIMtPRjhxcs-rpP-47" vertex="1">
          <mxGeometry y="30" width="180" height="30" as="geometry" />
        </mxCell>
        <mxCell id="ViXsvkIMtPRjhxcs-rpP-49" value="PK" style="shape=partialRectangle;html=1;whiteSpace=wrap;connectable=0;fillColor=none;top=0;left=0;bottom=0;right=0;overflow=hidden;" parent="ViXsvkIMtPRjhxcs-rpP-48" vertex="1">
          <mxGeometry width="40" height="30" as="geometry" />
        </mxCell>
        <mxCell id="ViXsvkIMtPRjhxcs-rpP-50" value="Id_distinta" style="shape=partialRectangle;html=1;whiteSpace=wrap;connectable=0;fillColor=none;top=0;left=0;bottom=0;right=0;align=left;spacingLeft=6;overflow=hidden;" parent="ViXsvkIMtPRjhxcs-rpP-48" vertex="1">
          <mxGeometry x="40" width="140" height="30" as="geometry" />
        </mxCell>
        <mxCell id="ViXsvkIMtPRjhxcs-rpP-51" value="" style="shape=partialRectangle;html=1;whiteSpace=wrap;collapsible=0;dropTarget=0;pointerEvents=0;fillColor=none;top=0;left=0;bottom=0;right=0;points=[[0,0.5],[1,0.5]];portConstraint=eastwest;" parent="ViXsvkIMtPRjhxcs-rpP-47" vertex="1">
          <mxGeometry y="60" width="180" height="30" as="geometry" />
        </mxCell>
        <mxCell id="ViXsvkIMtPRjhxcs-rpP-52" value="" style="shape=partialRectangle;html=1;whiteSpace=wrap;connectable=0;fillColor=none;top=0;left=0;bottom=0;right=0;overflow=hidden;" parent="ViXsvkIMtPRjhxcs-rpP-51" vertex="1">
          <mxGeometry width="40" height="30" as="geometry" />
        </mxCell>
        <mxCell id="ViXsvkIMtPRjhxcs-rpP-53" value="" style="shape=partialRectangle;html=1;whiteSpace=wrap;connectable=0;fillColor=none;top=0;left=0;bottom=0;right=0;align=left;spacingLeft=6;overflow=hidden;" parent="ViXsvkIMtPRjhxcs-rpP-51" vertex="1">
          <mxGeometry x="40" width="140" height="30" as="geometry" />
        </mxCell>
        <mxCell id="ViXsvkIMtPRjhxcs-rpP-54" value="" style="shape=partialRectangle;html=1;whiteSpace=wrap;collapsible=0;dropTarget=0;pointerEvents=0;fillColor=none;top=0;left=0;bottom=0;right=0;points=[[0,0.5],[1,0.5]];portConstraint=eastwest;" parent="ViXsvkIMtPRjhxcs-rpP-47" vertex="1">
          <mxGeometry y="90" width="180" height="30" as="geometry" />
        </mxCell>
        <mxCell id="ViXsvkIMtPRjhxcs-rpP-55" value="FK" style="shape=partialRectangle;html=1;whiteSpace=wrap;connectable=0;fillColor=none;top=0;left=0;bottom=0;right=0;overflow=hidden;" parent="ViXsvkIMtPRjhxcs-rpP-54" vertex="1">
          <mxGeometry width="40" height="30" as="geometry" />
        </mxCell>
        <mxCell id="ViXsvkIMtPRjhxcs-rpP-56" value="Id_giocatore&lt;br&gt;Id_partita" style="shape=partialRectangle;html=1;whiteSpace=wrap;connectable=0;fillColor=none;top=0;left=0;bottom=0;right=0;align=left;spacingLeft=6;overflow=hidden;" parent="ViXsvkIMtPRjhxcs-rpP-54" vertex="1">
          <mxGeometry x="40" width="140" height="30" as="geometry" />
        </mxCell>
        <mxCell id="ViXsvkIMtPRjhxcs-rpP-57" value="" style="shape=partialRectangle;html=1;whiteSpace=wrap;collapsible=0;dropTarget=0;pointerEvents=0;fillColor=none;top=0;left=0;bottom=0;right=0;points=[[0,0.5],[1,0.5]];portConstraint=eastwest;" parent="ViXsvkIMtPRjhxcs-rpP-47" vertex="1">
          <mxGeometry y="120" width="180" height="30" as="geometry" />
        </mxCell>
        <mxCell id="ViXsvkIMtPRjhxcs-rpP-58" value="" style="shape=partialRectangle;html=1;whiteSpace=wrap;connectable=0;fillColor=none;top=0;left=0;bottom=0;right=0;overflow=hidden;" parent="ViXsvkIMtPRjhxcs-rpP-57" vertex="1">
          <mxGeometry width="40" height="30" as="geometry" />
        </mxCell>
        <mxCell id="ViXsvkIMtPRjhxcs-rpP-59" value="" style="shape=partialRectangle;html=1;whiteSpace=wrap;connectable=0;fillColor=none;top=0;left=0;bottom=0;right=0;align=left;spacingLeft=6;overflow=hidden;" parent="ViXsvkIMtPRjhxcs-rpP-57" vertex="1">
          <mxGeometry x="40" width="140" height="30" as="geometry" />
        </mxCell>
        <mxCell id="ViXsvkIMtPRjhxcs-rpP-60" style="edgeStyle=orthogonalEdgeStyle;rounded=0;orthogonalLoop=1;jettySize=auto;html=1;entryX=-0.006;entryY=0.167;entryDx=0;entryDy=0;entryPerimeter=0;endArrow=ERmany;endFill=0;" parent="uaCEyn_hK47C4jp3-MxF-1" source="ViXsvkIMtPRjhxcs-rpP-34" target="ViXsvkIMtPRjhxcs-rpP-54" edge="1">
          <mxGeometry relative="1" as="geometry" />
        </mxCell>
        <mxCell id="ViXsvkIMtPRjhxcs-rpP-62" value="Goal" style="shape=table;html=1;whiteSpace=wrap;startSize=30;container=1;collapsible=0;childLayout=tableLayout;fixedRows=1;rowLines=0;fontStyle=1;align=center;fillColor=#f8cecc;strokeColor=#b85450;" parent="uaCEyn_hK47C4jp3-MxF-1" vertex="1">
          <mxGeometry x="500" y="550" width="180" height="170" as="geometry" />
        </mxCell>
        <mxCell id="ViXsvkIMtPRjhxcs-rpP-63" value="" style="shape=partialRectangle;html=1;whiteSpace=wrap;collapsible=0;dropTarget=0;pointerEvents=0;fillColor=none;top=0;left=0;bottom=1;right=0;points=[[0,0.5],[1,0.5]];portConstraint=eastwest;" parent="ViXsvkIMtPRjhxcs-rpP-62" vertex="1">
          <mxGeometry y="30" width="180" height="30" as="geometry" />
        </mxCell>
        <mxCell id="ViXsvkIMtPRjhxcs-rpP-64" value="PK" style="shape=partialRectangle;html=1;whiteSpace=wrap;connectable=0;fillColor=none;top=0;left=0;bottom=0;right=0;overflow=hidden;" parent="ViXsvkIMtPRjhxcs-rpP-63" vertex="1">
          <mxGeometry width="40" height="30" as="geometry" />
        </mxCell>
        <mxCell id="ViXsvkIMtPRjhxcs-rpP-65" value="Id_goal" style="shape=partialRectangle;html=1;whiteSpace=wrap;connectable=0;fillColor=none;top=0;left=0;bottom=0;right=0;align=left;spacingLeft=6;overflow=hidden;" parent="ViXsvkIMtPRjhxcs-rpP-63" vertex="1">
          <mxGeometry x="40" width="140" height="30" as="geometry" />
        </mxCell>
        <mxCell id="ViXsvkIMtPRjhxcs-rpP-66" value="" style="shape=partialRectangle;html=1;whiteSpace=wrap;collapsible=0;dropTarget=0;pointerEvents=0;fillColor=none;top=0;left=0;bottom=0;right=0;points=[[0,0.5],[1,0.5]];portConstraint=eastwest;" parent="ViXsvkIMtPRjhxcs-rpP-62" vertex="1">
          <mxGeometry y="60" width="180" height="50" as="geometry" />
        </mxCell>
        <mxCell id="ViXsvkIMtPRjhxcs-rpP-67" value="" style="shape=partialRectangle;html=1;whiteSpace=wrap;connectable=0;fillColor=none;top=0;left=0;bottom=0;right=0;overflow=hidden;" parent="ViXsvkIMtPRjhxcs-rpP-66" vertex="1">
          <mxGeometry width="40" height="50" as="geometry" />
        </mxCell>
        <mxCell id="ViXsvkIMtPRjhxcs-rpP-68" value="minuto&lt;br&gt;secondo&lt;br&gt;tipo" style="shape=partialRectangle;html=1;whiteSpace=wrap;connectable=0;fillColor=none;top=0;left=0;bottom=0;right=0;align=left;spacingLeft=6;overflow=hidden;" parent="ViXsvkIMtPRjhxcs-rpP-66" vertex="1">
          <mxGeometry x="40" width="140" height="50" as="geometry" />
        </mxCell>
        <mxCell id="ViXsvkIMtPRjhxcs-rpP-69" value="" style="shape=partialRectangle;html=1;whiteSpace=wrap;collapsible=0;dropTarget=0;pointerEvents=0;fillColor=none;top=0;left=0;bottom=0;right=0;points=[[0,0.5],[1,0.5]];portConstraint=eastwest;" parent="ViXsvkIMtPRjhxcs-rpP-62" vertex="1">
          <mxGeometry y="110" width="180" height="30" as="geometry" />
        </mxCell>
        <mxCell id="ViXsvkIMtPRjhxcs-rpP-70" value="FK" style="shape=partialRectangle;html=1;whiteSpace=wrap;connectable=0;fillColor=none;top=0;left=0;bottom=0;right=0;overflow=hidden;" parent="ViXsvkIMtPRjhxcs-rpP-69" vertex="1">
          <mxGeometry width="40" height="30" as="geometry" />
        </mxCell>
        <mxCell id="ViXsvkIMtPRjhxcs-rpP-71" value="Id_distinta" style="shape=partialRectangle;html=1;whiteSpace=wrap;connectable=0;fillColor=none;top=0;left=0;bottom=0;right=0;align=left;spacingLeft=6;overflow=hidden;" parent="ViXsvkIMtPRjhxcs-rpP-69" vertex="1">
          <mxGeometry x="40" width="140" height="30" as="geometry" />
        </mxCell>
        <mxCell id="ViXsvkIMtPRjhxcs-rpP-72" value="" style="shape=partialRectangle;html=1;whiteSpace=wrap;collapsible=0;dropTarget=0;pointerEvents=0;fillColor=none;top=0;left=0;bottom=0;right=0;points=[[0,0.5],[1,0.5]];portConstraint=eastwest;" parent="ViXsvkIMtPRjhxcs-rpP-62" vertex="1">
          <mxGeometry y="140" width="180" height="30" as="geometry" />
        </mxCell>
        <mxCell id="ViXsvkIMtPRjhxcs-rpP-73" value="" style="shape=partialRectangle;html=1;whiteSpace=wrap;connectable=0;fillColor=none;top=0;left=0;bottom=0;right=0;overflow=hidden;" parent="ViXsvkIMtPRjhxcs-rpP-72" vertex="1">
          <mxGeometry width="40" height="30" as="geometry" />
        </mxCell>
        <mxCell id="ViXsvkIMtPRjhxcs-rpP-74" value="" style="shape=partialRectangle;html=1;whiteSpace=wrap;connectable=0;fillColor=none;top=0;left=0;bottom=0;right=0;align=left;spacingLeft=6;overflow=hidden;" parent="ViXsvkIMtPRjhxcs-rpP-72" vertex="1">
          <mxGeometry x="40" width="140" height="30" as="geometry" />
        </mxCell>
        <mxCell id="ViXsvkIMtPRjhxcs-rpP-76" value="Sostituzione" style="shape=table;html=1;whiteSpace=wrap;startSize=30;container=1;collapsible=0;childLayout=tableLayout;fixedRows=1;rowLines=0;fontStyle=1;align=center;fillColor=#f8cecc;strokeColor=#b85450;" parent="uaCEyn_hK47C4jp3-MxF-1" vertex="1">
          <mxGeometry x="234" y="570" width="180" height="170" as="geometry" />
        </mxCell>
        <mxCell id="ViXsvkIMtPRjhxcs-rpP-77" value="" style="shape=partialRectangle;html=1;whiteSpace=wrap;collapsible=0;dropTarget=0;pointerEvents=0;fillColor=none;top=0;left=0;bottom=1;right=0;points=[[0,0.5],[1,0.5]];portConstraint=eastwest;" parent="ViXsvkIMtPRjhxcs-rpP-76" vertex="1">
          <mxGeometry y="30" width="180" height="30" as="geometry" />
        </mxCell>
        <mxCell id="ViXsvkIMtPRjhxcs-rpP-78" value="PK" style="shape=partialRectangle;html=1;whiteSpace=wrap;connectable=0;fillColor=none;top=0;left=0;bottom=0;right=0;overflow=hidden;" parent="ViXsvkIMtPRjhxcs-rpP-77" vertex="1">
          <mxGeometry width="40" height="30" as="geometry" />
        </mxCell>
        <mxCell id="ViXsvkIMtPRjhxcs-rpP-79" value="Id_sostituzione" style="shape=partialRectangle;html=1;whiteSpace=wrap;connectable=0;fillColor=none;top=0;left=0;bottom=0;right=0;align=left;spacingLeft=6;overflow=hidden;" parent="ViXsvkIMtPRjhxcs-rpP-77" vertex="1">
          <mxGeometry x="40" width="140" height="30" as="geometry" />
        </mxCell>
        <mxCell id="ViXsvkIMtPRjhxcs-rpP-80" value="" style="shape=partialRectangle;html=1;whiteSpace=wrap;collapsible=0;dropTarget=0;pointerEvents=0;fillColor=none;top=0;left=0;bottom=0;right=0;points=[[0,0.5],[1,0.5]];portConstraint=eastwest;" parent="ViXsvkIMtPRjhxcs-rpP-76" vertex="1">
          <mxGeometry y="60" width="180" height="50" as="geometry" />
        </mxCell>
        <mxCell id="ViXsvkIMtPRjhxcs-rpP-81" value="" style="shape=partialRectangle;html=1;whiteSpace=wrap;connectable=0;fillColor=none;top=0;left=0;bottom=0;right=0;overflow=hidden;" parent="ViXsvkIMtPRjhxcs-rpP-80" vertex="1">
          <mxGeometry width="40" height="50" as="geometry" />
        </mxCell>
        <mxCell id="ViXsvkIMtPRjhxcs-rpP-82" value="minuto&lt;br&gt;durata" style="shape=partialRectangle;html=1;whiteSpace=wrap;connectable=0;fillColor=none;top=0;left=0;bottom=0;right=0;align=left;spacingLeft=6;overflow=hidden;" parent="ViXsvkIMtPRjhxcs-rpP-80" vertex="1">
          <mxGeometry x="40" width="140" height="50" as="geometry" />
        </mxCell>
        <mxCell id="ViXsvkIMtPRjhxcs-rpP-83" value="" style="shape=partialRectangle;html=1;whiteSpace=wrap;collapsible=0;dropTarget=0;pointerEvents=0;fillColor=none;top=0;left=0;bottom=0;right=0;points=[[0,0.5],[1,0.5]];portConstraint=eastwest;" parent="ViXsvkIMtPRjhxcs-rpP-76" vertex="1">
          <mxGeometry y="110" width="180" height="30" as="geometry" />
        </mxCell>
        <mxCell id="ViXsvkIMtPRjhxcs-rpP-84" value="FK" style="shape=partialRectangle;html=1;whiteSpace=wrap;connectable=0;fillColor=none;top=0;left=0;bottom=0;right=0;overflow=hidden;" parent="ViXsvkIMtPRjhxcs-rpP-83" vertex="1">
          <mxGeometry width="40" height="30" as="geometry" />
        </mxCell>
        <mxCell id="ViXsvkIMtPRjhxcs-rpP-85" value="Id_distinta" style="shape=partialRectangle;html=1;whiteSpace=wrap;connectable=0;fillColor=none;top=0;left=0;bottom=0;right=0;align=left;spacingLeft=6;overflow=hidden;" parent="ViXsvkIMtPRjhxcs-rpP-83" vertex="1">
          <mxGeometry x="40" width="140" height="30" as="geometry" />
        </mxCell>
        <mxCell id="ViXsvkIMtPRjhxcs-rpP-86" value="" style="shape=partialRectangle;html=1;whiteSpace=wrap;collapsible=0;dropTarget=0;pointerEvents=0;fillColor=none;top=0;left=0;bottom=0;right=0;points=[[0,0.5],[1,0.5]];portConstraint=eastwest;" parent="ViXsvkIMtPRjhxcs-rpP-76" vertex="1">
          <mxGeometry y="140" width="180" height="30" as="geometry" />
        </mxCell>
        <mxCell id="ViXsvkIMtPRjhxcs-rpP-87" value="" style="shape=partialRectangle;html=1;whiteSpace=wrap;connectable=0;fillColor=none;top=0;left=0;bottom=0;right=0;overflow=hidden;" parent="ViXsvkIMtPRjhxcs-rpP-86" vertex="1">
          <mxGeometry width="40" height="30" as="geometry" />
        </mxCell>
        <mxCell id="ViXsvkIMtPRjhxcs-rpP-88" value="" style="shape=partialRectangle;html=1;whiteSpace=wrap;connectable=0;fillColor=none;top=0;left=0;bottom=0;right=0;align=left;spacingLeft=6;overflow=hidden;" parent="ViXsvkIMtPRjhxcs-rpP-86" vertex="1">
          <mxGeometry x="40" width="140" height="30" as="geometry" />
        </mxCell>
        <mxCell id="ViXsvkIMtPRjhxcs-rpP-89" style="edgeStyle=orthogonalEdgeStyle;rounded=0;orthogonalLoop=1;jettySize=auto;html=1;entryX=0.539;entryY=0.006;entryDx=0;entryDy=0;entryPerimeter=0;endArrow=ERmany;endFill=0;" parent="uaCEyn_hK47C4jp3-MxF-1" source="ViXsvkIMtPRjhxcs-rpP-57" target="ViXsvkIMtPRjhxcs-rpP-76" edge="1">
          <mxGeometry relative="1" as="geometry" />
        </mxCell>
      </root>
    </mxGraphModel>
  </diagram>
</mxfile>
